<?xml version="1.0" encoding="iso-8859-1"?>
<!-- Generator: Adobe Illustrator 19.0.0, SVG Export Plug-In . SVG Version: 6.00 Build 0)  -->
<svg xmlns="http://www.w3.org/2000/svg" xmlns:xlink="http://www.w3.org/1999/xlink" version="1.1" id="Layer_1" x="0px" y="0px" viewBox="0 0 406.451 406.451" style="enable-background:new 0 0 406.451 406.451;" xml:space="preserve" width="512" height="512">
<path style="fill:#1D1D1B;" d="M203.111,296.29h0.23c-0.145-1.596-0.23-3.209-0.23-4.843V296.29z"/>
<path style="fill:#1D1D1B;" d="M203.341,296.29v-4.843c0,1.634-0.085,3.247-0.23,4.843H203.341z"/>
<g>
	<path style="fill:#387F9E;" d="M33.512,133.161v79.85c0,4.418,3.582,8,8,8H68.09c3.955,0,7.383-2.878,7.915-6.797   c3.317-24.45,24.276-43.296,49.636-43.296s46.319,18.845,49.636,43.296c0.532,3.919,3.96,6.797,7.915,6.797h40.068   c3.955,0,7.383-2.878,7.915-6.797c3.317-24.45,24.275-43.296,49.636-43.296c25.36,0,46.318,18.845,49.635,43.296   c0.532,3.919,3.96,6.797,7.915,6.797h26.579c4.418,0,8-3.582,8-8v-79.85c0-4.418-3.582-8-8-8H41.512   C37.094,125.161,33.512,128.743,33.512,133.161z"/>
	<path style="fill:#29556E;" d="M33.512,133.161v79.85c0,4.418,3.582,8,8,8H68.09c3.955,0,7.383-2.878,7.915-6.797   c3.317-24.45,24.276-43.296,49.636-43.296s46.319,18.845,49.636,43.296c0.532,3.919,3.96,6.797,7.915,6.797h19.919v-95.85H41.512   C37.094,125.161,33.512,128.743,33.512,133.161z"/>
	<path style="fill:#F79F4B;" d="M391.451,140.161H15c-8.284,0-15-6.716-15-15s6.716-15,15-15h376.451c8.284,0,15,6.716,15,15   S399.735,140.161,391.451,140.161z"/>
	<path style="fill:#CA8540;" d="M203.341,140.161H15c-8.284,0-15-6.716-15-15s6.716-15,15-15h188.341V140.161z"/>
</g>















</svg>
