<?xml version="1.0" encoding="iso-8859-1"?>
<!-- Generator: Adobe Illustrator 19.0.0, SVG Export Plug-In . SVG Version: 6.00 Build 0)  -->
<svg version="1.1" id="Layer_1" xmlns="http://www.w3.org/2000/svg" xmlns:xlink="http://www.w3.org/1999/xlink" x="0px" y="0px"
	 viewBox="0 0 511.999 511.999" style="enable-background:new 0 0 511.999 511.999;" xml:space="preserve">
<path style="fill:#C62B24;" d="M418.559,22.048C389.747,38.683,352.906,28.811,336.27,0L65.292,156.451
	c16.633,28.811,6.762,65.654-22.05,82.287l21.381,37.029L228.9,180.92h-0.002l87.293-50.399
	c16.635,28.811,53.475,38.682,82.287,22.049l48.898,84.694l19.41-11.208c-16.633-28.81-6.762-65.651,22.049-82.286L418.559,22.048z"
	/>
<path style="fill:#D82E2E;" d="M488.836,143.772L418.559,22.048C389.747,38.683,352.906,28.811,336.27,0l-94.537,54.582
	c-36.195,44.463-60.625,98.878-68.559,158.512L228.9,180.92h-0.002l87.293-50.399c16.635,28.811,53.475,38.682,82.287,22.049
	l48.898,84.694l19.41-11.208C450.155,197.248,460.026,160.408,488.836,143.772z"/>
<path style="fill:#E23A2D;" d="M418.559,22.048C389.747,38.683,352.906,28.811,336.27,0l-87.291,50.399l51.498,89.196l15.715-9.073
	c16.635,28.811,53.475,38.682,82.287,22.049l48.898,84.694l19.41-11.208c-16.633-28.81-6.762-65.651,22.049-82.286L418.559,22.048z"
	/>
<path style="fill:#F5F5F5;" d="M130.909,205.155c-2.676,0-5.278-1.388-6.713-3.871c-2.139-3.705-0.87-8.44,2.835-10.579
	l107.237-61.915c3.703-2.136,8.438-0.87,10.577,2.835c2.139,3.703,0.872,8.439-2.835,10.578l-107.236,61.915
	C133.554,204.821,132.223,205.155,130.909,205.155z"/>
<path style="fill:#EA473B;" d="M316.191,129.49L45.21,285.941c16.634,28.81,6.762,65.651-22.048,82.285l70.276,121.724
	c28.813-16.636,65.654-6.764,82.289,22.048l270.98-156.452c-16.634-28.811-6.763-65.654,22.049-82.287l-70.278-121.723
	C369.667,168.171,332.826,158.301,316.191,129.49z"/>
<path style="fill:#F95450;" d="M316.191,129.49l-142.859,82.48c-1.945,14.228-2.973,28.75-2.973,43.513
	c0,81.722,30.793,156.242,81.392,212.624l194.955-112.558c-16.634-28.811-6.763-65.654,22.049-82.287l-70.278-121.723
	C369.667,168.171,332.826,158.301,316.191,129.49z"/>
<g>
	<path style="fill:#FC7070;" d="M276.629,366.429c3.694,6.401,1.502,14.591-4.9,18.286l-84.053,48.527
		c-6.402,3.697-14.592,1.503-18.288-4.901l-1.115-1.931c-3.695-6.402-1.502-14.591,4.901-18.287l84.053-48.527
		c6.402-3.696,14.591-1.503,18.287,4.9L276.629,366.429z"/>
	<path style="fill:#FC7070;" d="M316.191,129.49l-87.293,50.399l130.516,226.059l87.292-50.399
		c-16.634-28.811-6.763-65.654,22.049-82.287l-70.278-121.723C369.667,168.171,332.826,158.301,316.191,129.49z"/>
</g>
<g>
	<path style="fill:#F5F5F5;" d="M110.828,334.645c-2.677,0-5.279-1.388-6.714-3.873c-2.137-3.702-0.869-8.439,2.835-10.578
		l107.239-61.914c3.702-2.138,8.439-0.871,10.578,2.834c2.138,3.704,0.87,8.439-2.835,10.578l-107.238,61.915
		C113.474,334.31,112.142,334.645,110.828,334.645z"/>
	<path style="fill:#F5F5F5;" d="M127.562,363.626c-2.676,0-5.278-1.387-6.714-3.872c-2.139-3.703-0.87-8.439,2.835-10.578
		l107.237-61.913c3.705-2.139,8.439-0.871,10.579,2.834c2.139,3.703,0.87,8.44-2.835,10.578l-107.238,61.913
		C130.207,363.291,128.876,363.626,127.562,363.626z"/>
	<path style="fill:#F5F5F5;" d="M144.296,392.613c-2.677,0-5.278-1.39-6.713-3.874c-2.139-3.703-0.871-8.438,2.834-10.577
		l107.238-61.915c3.702-2.138,8.438-0.869,10.578,2.835c2.139,3.703,0.87,8.439-2.835,10.578l-107.237,61.914
		C146.941,392.277,145.61,392.613,144.296,392.613z"/>
</g>
<g>
</g>
<g>
</g>
<g>
</g>
<g>
</g>
<g>
</g>
<g>
</g>
<g>
</g>
<g>
</g>
<g>
</g>
<g>
</g>
<g>
</g>
<g>
</g>
<g>
</g>
<g>
</g>
<g>
</g>
</svg>
