<?xml version="1.0" encoding="iso-8859-1"?>
<!-- Generator: Adobe Illustrator 19.0.0, SVG Export Plug-In . SVG Version: 6.00 Build 0)  -->
<svg version="1.1" id="Layer_1" xmlns="http://www.w3.org/2000/svg" xmlns:xlink="http://www.w3.org/1999/xlink" x="0px" y="0px"
	 viewBox="0 0 512 512" style="enable-background:new 0 0 512 512;" xml:space="preserve">
<polygon style="fill:#134A79;" points="139.13,392.348 161.391,459.13 256,459.13 278.261,370.087 "/>
<polygon style="fill:#092339;" points="372.87,392.348 256,370.087 256,459.13 350.609,459.13 "/>
<rect x="239.304" y="52.87" style="fill:#4A8EC6;" width="33.391" height="105.739"/>
<path style="fill:#F9B233;" d="M139.13,253.217l139.13,22.261L256,136.348C191.455,136.348,139.13,188.672,139.13,253.217z"/>
<path style="fill:#FB8454;" d="M256,136.348v139.13l116.87-22.261C372.87,188.672,320.545,136.348,256,136.348z"/>
<path style="fill:#1D71B8;" d="M0,322.783v1.113c32.344,27.479,92.9,53.563,139.13,68.452H256l22.261-91.826L0,322.783z"/>
<path style="fill:#134A79;" d="M256,300.522v91.826h116.87c46.23-14.889,106.787-40.973,139.13-68.452v-1.113L256,300.522z"/>
<path style="fill:#77AAD4;" d="M139.13,253.217C92.9,268.107,32.344,294.191,0,321.67v1.113h256L278.261,288L256,253.217H139.13z"/>
<path style="fill:#4A8EC6;" d="M512,321.67c-32.344-27.479-92.9-53.563-139.13-68.452H256v69.565h256V321.67z"/>
<g>
</g>
<g>
</g>
<g>
</g>
<g>
</g>
<g>
</g>
<g>
</g>
<g>
</g>
<g>
</g>
<g>
</g>
<g>
</g>
<g>
</g>
<g>
</g>
<g>
</g>
<g>
</g>
<g>
</g>
</svg>
